<svg width="1036" height="514" viewBox="0 0 1036 514" fill="none" xmlns="http://www.w3.org/2000/svg">
<path fill-rule="evenodd" clip-rule="evenodd" d="M298 2H214V36H239L239 258H273L273 36H298V2Z" fill="white"/>
<path fill-rule="evenodd" clip-rule="evenodd" d="M342 2H308L308 258H342H381V224H342V138H376V104H342V36H381V2H342Z" fill="white"/>
<path fill-rule="evenodd" clip-rule="evenodd" d="M528 2V104H555L555 2H589L589 258H555V138H528L528 258H494L494 2H528Z" fill="white"/>
<path fill-rule="evenodd" clip-rule="evenodd" d="M426 0H424C406.327 0 392 14.3269 392 32L392 226C392 243.673 406.327 258 424 258H426H446H448C465.673 258 480 243.673 480 226L480 138H446L446 224H426V34H446V102H480L480 32C480 14.3269 465.673 0 448 0H446H426Z" fill="white"/>
<path fill-rule="evenodd" clip-rule="evenodd" d="M648.676 444.811L637 258H603L623.5 514H643H653H672L682 343.333L692 514H711H721H740.5L761 258H727L715.324 444.811L700 258H687H677H664L648.676 444.811Z" fill="white"/>
<path fill-rule="evenodd" clip-rule="evenodd" d="M804 258H770L770 514H804H843V480H804V394H838V360H804V292H843V258H804Z" fill="white"/>
<path fill-rule="evenodd" clip-rule="evenodd" d="M887 258H853L853 514H887H926V480H887V394H921V360H887V292H926V258H887Z" fill="white"/>
<path fill-rule="evenodd" clip-rule="evenodd" d="M970 367V258H936L936 433V514H970V433L978.081 404.121L1002 514H1036L1004 367L1032 258H998L970 367Z" fill="white"/>
<path fill-rule="evenodd" clip-rule="evenodd" d="M64 258L64 386L44 258H34H14L0 258L6.42557e-06 514H34L34 386L54 514H64H84H98L98 258L64 258Z" fill="white"/>
<path fill-rule="evenodd" clip-rule="evenodd" d="M110 258L138 433L138 514H172L172 433L200 258H166L155 364.944L144 258H110Z" fill="white"/>
</svg>
